# xmcd
#
# Track frame offsets:
#	150
#	11907
#	27059
#	39023
#	53238
#	63283
#	75012
#	84647
#	99082
#	110432
#	123018
#	136744
#	149169
#	159606
#	170047
#	185307
#	197088
#	208216
#	219254
#	231564
#
# Disc length: 3252 seconds
#
# Revision: 0
# Processed by: cddbd v1.5.2PL0 Copyright (c) Steve Scherf et al.
# Submitted via: EasyCDDAExtractor 11.1.0.1
#
DISCID=090cb214
DTITLE=Various Artist - Today tomorrow forever
DYEAR=2008
DGENRE=country
TTITLE0=Patsy Cline - Today tomorrow forever
TTITLE1=Elvis Presley - First in line
TTITLE2=Hank Williams - Take these chains from my heart
TTITLE3=Jim Reeves - Highway to nowhere
TTITLE4=Johnny Cash - Hey porter
TTITLE5=Eddy Arnold - A heart full of love
TTITLE6=Bob Wills and his Texas Playboys - Sweet Jennie Lee
TTITLE7=Red Foley and The Sunshine Boys quartet - Peace in the valley
TTITLE8=Carl Smith - Hey Joe
TTITLE9=Willie Nelson - To all the girls I've loved before
TTITLE10=Uncle Dave Macon - Go long mule
TTITLE11=Johnny Bond - I'll step aside
TTITLE12=Ernie Ford and Helen O'Connell - Cool cool kisses
TTITLE13=Patsy Cline - I love you honey
TTITLE14=Elvis Presley - That's when you're heartaches begin
TTITLE15=Hank Williams - Dear John
TTITLE16=Johnny Cash - Don't make me go
TTITLE17=Jim Reeves - Gypsy heart
TTITLE18=Willie Nelson - Shelter of my arms
TTITLE19=Ernest Tubb - Careless darling
EXTD=
EXTT0=
EXTT1=
EXTT2=
EXTT3=
EXTT4=
EXTT5=
EXTT6=
EXTT7=
EXTT8=
EXTT9=
EXTT10=
EXTT11=
EXTT12=
EXTT13=
EXTT14=
EXTT15=
EXTT16=
EXTT17=
EXTT18=
EXTT19=
PLAYORDER=
